Simulation
nRows=20
nColumns=15
endheader
time  TH_x TH_y TH_z SC_y  SC_z  SC_x  AC_y  AC_z  AC_x  GH_y  GH_z  GH_yy  EL_x  PS_y
1.55  0.000000  0.000000  0.000000  -34.04788103072818  7.025596895056539  44.76247851316529  54.389723938909846  -9.83652478110738  -17.247798175811912  21.512298073747743  55.88958690059616  -18.716963675639093  17.96439156452447  0.000000
1.581  0.000000  0.000000  0.000000  -34.3437357836441  7.30970416181871  45.216070105576556  54.36133102356315  -9.62068718188398  -16.94696934410614  21.356138741283313  56.43300147766253  -18.759618777655053  17.939941136754513  0.000000
1.612  0.000000  0.000000  0.000000  -34.61717909249103  7.556103570824036  45.590457015124514  54.35416766935889  -9.43825995090155  -16.647218325311538  21.193307721374637  56.91930453120884  -18.771177420678523  17.926023869310963  0.000000
1.643  0.000000  0.000000  0.000000  -34.86586655301844  7.756524704030576  45.88610297514811  54.37137214994638  -9.283939529916568  -16.360863145832376  21.030103934635587  57.3366651176668  -18.76377922476892  17.926717566745953  0.000000
1.674  0.000000  0.000000  0.000000  -35.08990098303542  7.9090687642095086  46.10644081552571  54.40888100488781  -9.150640176995266  -16.10071475253497  20.88441178862326  57.66562752035558  -18.751781090595873  17.941615030727753  0.000000
1.705  0.000000  0.000000  0.000000  -35.29232864372322  8.01754609986918  46.26086555807104  54.45707215922202  -9.033984523977576  -15.878802972885005  20.778342928092435  57.884786244803166  -18.744380588089093  17.9665491118949  0.000000
1.736  0.000000  0.000000  0.000000  -35.47022319087289  8.08666858194594  46.35518275023166  54.50539229346312  -8.934360955709817  -15.707155638737735  20.729292638747847  57.97852291753812  -18.746392105026185  17.996238145168487  0.000000
1.767  0.000000  0.000000  0.000000  -35.61617346724348  8.12048253821044  46.394296865821715  54.543983233322194  -8.857476840989362  -15.597407653387933  20.7455456444494  57.940537216945614  -18.76005985286693  18.02613135349133  0.000000
1.798  0.000000  0.000000  0.000000  -35.71612112032136  8.120258936590545  46.37663585697778  54.56652151924387  -8.812090849357002  -15.559767971551263  20.826395708529  57.773411536358076  -18.788648867267682  18.052933898910364  0.000000
1.829  0.000000  0.000000  0.000000  -35.758293864365015  8.085106634088525  46.301875971591876  54.57106477628946  -8.807286408613203  -15.600284556892543  20.96585267711476  57.4836927138287  -18.838919349400825  18.074435011422533  0.000000
1.8599999999999999  0.000000  0.000000  0.000000  -35.7343010484076  8.010565691717394  46.168666788594514  54.562822964207484  -8.849968999501893  -15.718971158185584  21.155459013253548  57.077416019189805  -18.924343374535766  18.08949479700549  0.000000
1.891  0.000000  0.000000  0.000000  -35.64521017778742  7.89020759544638  45.980627800768524  54.552886745487115  -8.944517382492576  -15.908917041738672  21.385832896637538  56.558500397269945  -19.061973650552556  18.09783186978461  0.000000
1.922  0.000000  0.000000  0.000000  -35.496327036399  7.718036810698741  45.73891396209919  54.554680846994806  -9.094256777334774  -16.15830205350317  21.64667298191329  55.931801053673524  -19.265397854048445  18.10065912415196  0.000000
1.953  0.000000  0.000000  0.000000  -35.29907244210712  7.492763488795835  45.444922052441704  54.577263276344375  -9.302375380555718  -16.452770146337688  21.928045160662506  55.205217984907115  -19.53394262179724  18.10208212332262  0.000000
1.984  0.000000  0.000000  0.000000  -35.06409562675465  7.2183179942968305  45.09417729958633  54.621756920261575  -9.571171910982553  -16.778907968232357  22.220972982432478  54.39061960674515  -19.84874850092802  18.110221765984278  0.000000
2.015  0.000000  0.000000  0.000000  -34.803393120813354  6.902563662299453  44.68340035580885  54.68113861353585  -9.899744700625215  -17.12508114316064  22.518231160415066  53.50053632314199  -20.177453415674528  18.135362099623748  0.000000
2.046  0.000000  0.000000  0.000000  -34.52543198404821  6.552503875847261  44.208684172165505  54.74543592710652  -10.282405249842341  -17.48220903934361  22.814081442996645  52.545723705247354  -20.48730606092247  18.18558604253093  0.000000
2.077  0.000000  0.000000  0.000000  -34.239402667449866  6.17222698734476  43.6732348966885  54.8056367404418  -10.70854091528284  -17.843175185425327  23.104426446708164  51.5328628734125  -20.755542752012904  18.263097478541685  0.000000
2.108  0.000000  0.000000  0.000000  -33.95221236838274  5.762848395210117  43.08238730271633  54.85610307572529  -11.165088847553719  -18.202875074284105  23.386837472951505  50.46608149298302  -20.974031964679362  18.363359471923054  0.000000
2.139  0.000000  0.000000  0.000000  -33.67238840866954  5.32541424553164  42.445499590160956  54.89309001571321  -11.638142295802204  -18.55704096458426  23.660730631178478  49.348700803975525  -21.144542273275512  18.478400846701227  0.000000
